<?xml version="1.0" encoding="UTF-8" standalone="no"?>
<!DOCTYPE svg PUBLIC "-//W3C//DTD SVG 1.1//EN"
 "http://www.w3.org/Graphics/SVG/1.1/DTD/svg11.dtd">
<!-- Generated by graphviz version 2.36.0 (20140111.2315)
 -->
<!-- Title: G Pages: 1 -->
<svg width="637pt" height="1122pt"
 viewBox="0.00 0.00 637.00 1122.00" xmlns="http://www.w3.org/2000/svg" xmlns:xlink="http://www.w3.org/1999/xlink">
<g id="graph0" class="graph" transform="scale(1 1) rotate(0) translate(4 1118)">
<title>G</title>
<polygon fill="white" stroke="none" points="-4,4 -4,-1118 633,-1118 633,4 -4,4"/>
<!-- created -->
<g id="node1" class="node"><title>created</title>
<ellipse fill="none" stroke="black" cx="87" cy="-1036" rx="36" ry="36"/>
<text text-anchor="middle" x="87" y="-1032.3" font-family="Arial" font-size="14.00">created</text>
</g>
<!-- first_confirmed -->
<g id="node3" class="node"><title>first_confirmed</title>
<ellipse fill="none" stroke="black" cx="87" cy="-912" rx="59.1446" ry="36"/>
<text text-anchor="middle" x="87" y="-908.3" font-family="Arial" font-size="14.00">first_confirmed</text>
</g>
<!-- created&#45;&gt;first_confirmed -->
<g id="edge2" class="edge"><title>created&#45;&gt;first_confirmed</title>
<path fill="none" stroke="black" d="M87,-999.713C87,-986.814 87,-972.039 87,-958.383"/>
<polygon fill="black" stroke="black" points="90.5001,-958.208 87,-948.208 83.5001,-958.208 90.5001,-958.208"/>
<text text-anchor="middle" x="115" y="-970.3" font-family="Arial" font-size="14.00">confirm1</text>
</g>
<!-- second_confirmed -->
<g id="node4" class="node"><title>second_confirmed</title>
<ellipse fill="none" stroke="black" cx="236" cy="-912" rx="71.1419" ry="36"/>
<text text-anchor="middle" x="236" y="-908.3" font-family="Arial" font-size="14.00">second_confirmed</text>
</g>
<!-- created&#45;&gt;second_confirmed -->
<g id="edge4" class="edge"><title>created&#45;&gt;second_confirmed</title>
<path fill="none" stroke="black" d="M114.677,-1012.34C136.168,-994.742 166.401,-969.987 191.311,-949.591"/>
<polygon fill="black" stroke="black" points="193.673,-952.18 199.193,-943.137 189.239,-946.764 193.673,-952.18"/>
<text text-anchor="middle" x="199" y="-970.3" font-family="Arial" font-size="14.00">confirm2</text>
</g>
<!-- finished -->
<g id="node12" class="node"><title>finished</title>
<ellipse fill="none" stroke="black" cx="241" cy="-40" rx="36" ry="36"/>
<ellipse fill="none" stroke="black" cx="241" cy="-40" rx="40" ry="40"/>
<text text-anchor="middle" x="241" y="-36.3" font-family="Arial" font-size="14.00">finished</text>
</g>
<!-- created&#45;&gt;finished -->
<g id="edge14" class="edge"><title>created&#45;&gt;finished</title>
<path fill="none" stroke="black" d="M58.5129,-1013.12C33.1401,-990.942 0,-954.103 0,-913 0,-913 0,-913 0,-167 0,-81.6116 120.282,-53.9853 190.895,-45.1241"/>
<polygon fill="black" stroke="black" points="191.408,-48.588 200.933,-43.9482 190.594,-41.6356 191.408,-48.588"/>
<text text-anchor="middle" x="14" y="-536.3" font-family="Arial" font-size="14.00">stop</text>
</g>
<!-- starting_state -->
<g id="node2" class="node"><title>starting_state</title>
<ellipse fill="black" stroke="black" cx="87" cy="-1112" rx="1.8" ry="1.8"/>
</g>
<!-- starting_state&#45;&gt;created -->
<g id="edge1" class="edge"><title>starting_state&#45;&gt;created</title>
<path fill="none" stroke="black" d="M87,-1110.17C87,-1107.03 87,-1095.41 87,-1082.33"/>
<polygon fill="black" stroke="black" points="90.5001,-1082.16 87,-1072.16 83.5001,-1082.16 90.5001,-1082.16"/>
</g>
<!-- ready -->
<g id="node5" class="node"><title>ready</title>
<ellipse fill="none" stroke="black" cx="202" cy="-788" rx="36" ry="36"/>
<text text-anchor="middle" x="202" y="-784.3" font-family="Arial" font-size="14.00">ready</text>
</g>
<!-- first_confirmed&#45;&gt;ready -->
<g id="edge5" class="edge"><title>first_confirmed&#45;&gt;ready</title>
<path fill="none" stroke="black" d="M115.723,-880.529C132.371,-862.867 153.356,-840.604 170.462,-822.458"/>
<polygon fill="black" stroke="black" points="173.219,-824.636 177.531,-814.958 168.125,-819.834 173.219,-824.636"/>
<text text-anchor="middle" x="180" y="-846.3" font-family="Arial" font-size="14.00">confirm2</text>
</g>
<!-- first_confirmed&#45;&gt;finished -->
<g id="edge15" class="edge"><title>first_confirmed&#45;&gt;finished</title>
<path fill="none" stroke="black" d="M73.4931,-876.879C65.1393,-852.734 56,-819.377 56,-789 56,-789 56,-789 56,-167 56,-101.151 137.057,-67.2698 191.864,-51.8874"/>
<polygon fill="black" stroke="black" points="193.017,-55.2017 201.766,-49.2269 191.201,-48.4415 193.017,-55.2017"/>
<text text-anchor="middle" x="70" y="-474.3" font-family="Arial" font-size="14.00">stop</text>
</g>
<!-- second_confirmed&#45;&gt;ready -->
<g id="edge3" class="edge"><title>second_confirmed&#45;&gt;ready</title>
<path fill="none" stroke="black" d="M226.257,-876.04C222.53,-862.668 218.231,-847.241 214.297,-833.124"/>
<polygon fill="black" stroke="black" points="217.566,-831.816 211.51,-823.123 210.823,-833.696 217.566,-831.816"/>
<text text-anchor="middle" x="250" y="-846.3" font-family="Arial" font-size="14.00">confirm1</text>
</g>
<!-- second_confirmed&#45;&gt;finished -->
<g id="edge16" class="edge"><title>second_confirmed&#45;&gt;finished</title>
<path fill="none" stroke="black" d="M305.083,-902.252C410.9,-886.896 601,-850.72 601,-789 601,-789 601,-789 601,-167 601,-102.006 389.322,-62.6007 290.599,-47.7568"/>
<polygon fill="black" stroke="black" points="290.96,-44.2723 280.556,-46.2731 289.937,-51.1971 290.96,-44.2723"/>
<text text-anchor="middle" x="615" y="-474.3" font-family="Arial" font-size="14.00">stop</text>
</g>
<!-- started -->
<g id="node6" class="node"><title>started</title>
<ellipse fill="none" stroke="black" cx="265" cy="-664" rx="36" ry="36"/>
<text text-anchor="middle" x="265" y="-660.3" font-family="Arial" font-size="14.00">started</text>
</g>
<!-- ready&#45;&gt;started -->
<g id="edge6" class="edge"><title>ready&#45;&gt;started</title>
<path fill="none" stroke="black" d="M218.224,-755.582C226.087,-740.355 235.626,-721.884 244.033,-705.603"/>
<polygon fill="black" stroke="black" points="247.352,-706.803 248.831,-696.312 241.133,-703.591 247.352,-706.803"/>
<text text-anchor="middle" x="285" y="-722.3" font-family="Arial" font-size="14.00">prepare_game</text>
</g>
<!-- ready&#45;&gt;finished -->
<g id="edge17" class="edge"><title>ready&#45;&gt;finished</title>
<path fill="none" stroke="black" d="M171.997,-768.07C142.541,-746.894 102,-709.64 102,-665 102,-665 102,-665 102,-167 102,-115.782 154.447,-79.9444 194.909,-59.9176"/>
<polygon fill="black" stroke="black" points="196.597,-62.9903 204.115,-55.5257 193.583,-56.6723 196.597,-62.9903"/>
<text text-anchor="middle" x="116" y="-412.3" font-family="Arial" font-size="14.00">stop</text>
</g>
<!-- combat -->
<g id="node7" class="node"><title>combat</title>
<ellipse fill="none" stroke="black" cx="265" cy="-540" rx="36" ry="36"/>
<text text-anchor="middle" x="265" y="-536.3" font-family="Arial" font-size="14.00">combat</text>
</g>
<!-- started&#45;&gt;combat -->
<g id="edge7" class="edge"><title>started&#45;&gt;combat</title>
<path fill="none" stroke="black" d="M265,-627.713C265,-614.814 265,-600.039 265,-586.383"/>
<polygon fill="black" stroke="black" points="268.5,-586.208 265,-576.208 261.5,-586.208 268.5,-586.208"/>
<text text-anchor="middle" x="279" y="-598.3" font-family="Arial" font-size="14.00">start</text>
</g>
<!-- started&#45;&gt;finished -->
<g id="edge18" class="edge"><title>started&#45;&gt;finished</title>
<path fill="none" stroke="black" d="M301.221,-663.86C379.614,-663.645 558,-651.065 558,-541 558,-541 558,-541 558,-167 558,-110.118 379.508,-67.6553 290.397,-50.0007"/>
<polygon fill="black" stroke="black" points="290.993,-46.5511 280.507,-48.0707 289.652,-53.4215 290.993,-46.5511"/>
<text text-anchor="middle" x="572" y="-350.3" font-family="Arial" font-size="14.00">stop</text>
</g>
<!-- first_moved -->
<g id="node8" class="node"><title>first_moved</title>
<ellipse fill="none" stroke="black" cx="235" cy="-416" rx="48.3149" ry="36"/>
<text text-anchor="middle" x="235" y="-412.3" font-family="Arial" font-size="14.00">first_moved</text>
</g>
<!-- combat&#45;&gt;first_moved -->
<g id="edge8" class="edge"><title>combat&#45;&gt;first_moved</title>
<path fill="none" stroke="black" d="M256.563,-504.692C253.272,-491.307 249.456,-475.788 245.957,-461.558"/>
<polygon fill="black" stroke="black" points="249.264,-460.349 243.477,-451.474 242.466,-462.02 249.264,-460.349"/>
<text text-anchor="middle" x="275" y="-474.3" font-family="Arial" font-size="14.00">action1</text>
</g>
<!-- second_moved -->
<g id="node9" class="node"><title>second_moved</title>
<ellipse fill="none" stroke="black" cx="469" cy="-416" rx="61.3108" ry="36"/>
<text text-anchor="middle" x="469" y="-412.3" font-family="Arial" font-size="14.00">second_moved</text>
</g>
<!-- combat&#45;&gt;second_moved -->
<g id="edge10" class="edge"><title>combat&#45;&gt;second_moved</title>
<path fill="none" stroke="black" d="M295.541,-520.735C327.852,-501.412 379.388,-470.591 417.904,-447.558"/>
<polygon fill="black" stroke="black" points="420.113,-450.314 426.899,-442.178 416.52,-444.307 420.113,-450.314"/>
<text text-anchor="middle" x="403" y="-474.3" font-family="Arial" font-size="14.00">action2</text>
</g>
<!-- combat&#45;&gt;finished -->
<g id="edge19" class="edge"><title>combat&#45;&gt;finished</title>
<path fill="none" stroke="black" d="M234.051,-521.334C202.45,-500.729 158,-463.485 158,-417 158,-417 158,-417 158,-167 158,-131.073 181.825,-97.4747 203.945,-74.0232"/>
<polygon fill="black" stroke="black" points="206.544,-76.3715 211.035,-66.7754 201.54,-71.4765 206.544,-76.3715"/>
<text text-anchor="middle" x="172" y="-288.3" font-family="Arial" font-size="14.00">stop</text>
</g>
<!-- gain -->
<g id="node10" class="node"><title>gain</title>
<ellipse fill="none" stroke="black" cx="320" cy="-292" rx="36" ry="36"/>
<text text-anchor="middle" x="320" y="-288.3" font-family="Arial" font-size="14.00">gain</text>
</g>
<!-- first_moved&#45;&gt;gain -->
<g id="edge11" class="edge"><title>first_moved&#45;&gt;gain</title>
<path fill="none" stroke="black" d="M243.787,-380.39C247.666,-368.855 252.976,-356.323 260,-346 266.345,-336.674 274.697,-327.935 283.146,-320.347"/>
<polygon fill="black" stroke="black" points="285.563,-322.885 290.878,-313.719 281.008,-317.57 285.563,-322.885"/>
<text text-anchor="middle" x="283" y="-350.3" font-family="Arial" font-size="14.00">action2</text>
</g>
<!-- first_moved&#45;&gt;finished -->
<g id="edge20" class="edge"><title>first_moved&#45;&gt;finished</title>
<path fill="none" stroke="black" d="M234.543,-379.695C233.981,-326.133 233.395,-221.137 236,-132 236.398,-118.389 237.093,-103.644 237.841,-90.0673"/>
<polygon fill="black" stroke="black" points="241.343,-90.1339 238.419,-79.9505 234.354,-89.7344 241.343,-90.1339"/>
<text text-anchor="middle" x="249" y="-226.3" font-family="Arial" font-size="14.00">stop</text>
</g>
<!-- second_moved&#45;&gt;gain -->
<g id="edge9" class="edge"><title>second_moved&#45;&gt;gain</title>
<path fill="none" stroke="black" d="M429.545,-388.09C418.181,-379.981 405.913,-370.872 395,-362 380.655,-350.337 365.525,-336.699 352.641,-324.642"/>
<polygon fill="black" stroke="black" points="355.014,-322.068 345.338,-317.752 350.21,-327.16 355.014,-322.068"/>
<text text-anchor="middle" x="418" y="-350.3" font-family="Arial" font-size="14.00">action1</text>
</g>
<!-- second_moved&#45;&gt;finished -->
<g id="edge21" class="edge"><title>second_moved&#45;&gt;finished</title>
<path fill="none" stroke="black" d="M465.761,-379.747C458.933,-322.506 438.606,-208.1 381,-132 356.74,-99.9516 317.69,-75.9241 286.987,-60.6305"/>
<polygon fill="black" stroke="black" points="288.279,-57.3674 277.753,-56.1653 285.232,-63.6694 288.279,-57.3674"/>
<text text-anchor="middle" x="449" y="-226.3" font-family="Arial" font-size="14.00">stop</text>
</g>
<!-- gain&#45;&gt;combat -->
<g id="edge13" class="edge"><title>gain&#45;&gt;combat</title>
<path fill="none" stroke="black" d="M322.007,-327.984C323.093,-367.573 321.278,-433.389 302,-486 299.821,-491.947 296.805,-497.847 293.426,-503.433"/>
<polygon fill="black" stroke="black" points="290.425,-501.627 287.886,-511.913 296.285,-505.455 290.425,-501.627"/>
<text text-anchor="middle" x="357" y="-412.3" font-family="Arial" font-size="14.00">next_move</text>
</g>
<!-- deal -->
<g id="node11" class="node"><title>deal</title>
<ellipse fill="none" stroke="black" cx="281" cy="-168" rx="36" ry="36"/>
<text text-anchor="middle" x="281" y="-164.3" font-family="Arial" font-size="14.00">deal</text>
</g>
<!-- gain&#45;&gt;deal -->
<g id="edge12" class="edge"><title>gain&#45;&gt;deal</title>
<path fill="none" stroke="black" d="M293.682,-267.251C286.169,-258.838 278.953,-248.764 275,-238 272.141,-230.216 271.258,-221.619 271.494,-213.212"/>
<polygon fill="black" stroke="black" points="274.993,-213.359 272.278,-203.118 268.014,-212.816 274.993,-213.359"/>
<text text-anchor="middle" x="310.5" y="-226.3" font-family="Arial" font-size="14.00">deal_cards</text>
</g>
<!-- gain&#45;&gt;finished -->
<g id="edge22" class="edge"><title>gain&#45;&gt;finished</title>
<path fill="none" stroke="black" d="M337.874,-260.493C341.232,-253.341 344.239,-245.588 346,-238 353.953,-203.729 343.62,-166.617 326,-132 314.689,-109.779 296.317,-89.1094 279.542,-73.1038"/>
<polygon fill="black" stroke="black" points="281.69,-70.3227 271.978,-66.0892 276.931,-75.4554 281.69,-70.3227"/>
<text text-anchor="middle" x="363" y="-164.3" font-family="Arial" font-size="14.00">stop</text>
</g>
<!-- deal&#45;&gt;finished -->
<g id="edge23" class="edge"><title>deal&#45;&gt;finished</title>
<path fill="none" stroke="black" d="M270.386,-133.565C265.981,-119.69 260.791,-103.341 256.007,-88.2735"/>
<polygon fill="black" stroke="black" points="259.297,-87.0684 252.935,-78.5962 252.625,-89.1865 259.297,-87.0684"/>
<text text-anchor="middle" x="278" y="-102.3" font-family="Arial" font-size="14.00">stop</text>
</g>
</g>
</svg>
