<?xml version="1.0" encoding="UTF-8" standalone="no"?>
<!DOCTYPE svg PUBLIC "-//W3C//DTD SVG 1.1//EN"
 "http://www.w3.org/Graphics/SVG/1.1/DTD/svg11.dtd">
<!-- Generated by graphviz version 2.36.0 (20140111.2315)
 -->
<!-- Title: G Pages: 1 -->
<svg width="233pt" height="414pt"
 viewBox="0.00 0.00 233.00 414.00" xmlns="http://www.w3.org/2000/svg" xmlns:xlink="http://www.w3.org/1999/xlink">
<g id="graph0" class="graph" transform="scale(1 1) rotate(0) translate(4 410)">
<title>G</title>
<polygon fill="white" stroke="none" points="-4,4 -4,-410 229,-410 229,4 -4,4"/>
<!-- free -->
<g id="node1" class="node"><title>free</title>
<ellipse fill="none" stroke="black" cx="79" cy="-328" rx="36" ry="36"/>
<text text-anchor="middle" x="79" y="-324.3" font-family="Arial" font-size="14.00">free</text>
</g>
<!-- in_game -->
<g id="node3" class="node"><title>in_game</title>
<ellipse fill="none" stroke="black" cx="37" cy="-204" rx="37.1946" ry="36"/>
<text text-anchor="middle" x="37" y="-200.3" font-family="Arial" font-size="14.00">in_game</text>
</g>
<!-- free&#45;&gt;in_game -->
<g id="edge2" class="edge"><title>free&#45;&gt;in_game</title>
<path fill="none" stroke="black" d="M53.747,-302.174C46.9749,-293.914 40.5517,-284.2 37,-274 34.3688,-266.443 33.1107,-258.132 32.6883,-249.975"/>
<polygon fill="black" stroke="black" points="36.1858,-249.749 32.5597,-239.794 29.1864,-249.837 36.1858,-249.749"/>
<text text-anchor="middle" x="73" y="-262.3" font-family="Arial" font-size="14.00">start_game</text>
</g>
<!-- disconnected -->
<g id="node4" class="node"><title>disconnected</title>
<ellipse fill="none" stroke="black" cx="80" cy="-58" rx="53.2724" ry="53.6528"/>
<ellipse fill="none" stroke="black" cx="80" cy="-58" rx="57.2317" ry="57.6403"/>
<text text-anchor="middle" x="80" y="-54.3" font-family="Arial" font-size="14.00">disconnected</text>
</g>
<!-- free&#45;&gt;disconnected -->
<g id="edge3" class="edge"><title>free&#45;&gt;disconnected</title>
<path fill="none" stroke="black" d="M98.9871,-297.891C103.108,-290.423 106.846,-282.18 109,-274 124.848,-213.83 120.414,-195.166 109,-134 108.186,-129.636 107.126,-125.2 105.895,-120.775"/>
<polygon fill="black" stroke="black" points="109.222,-119.685 102.955,-111.143 102.527,-121.729 109.222,-119.685"/>
<text text-anchor="middle" x="154" y="-200.3" font-family="Arial" font-size="14.00">disconnect</text>
</g>
<!-- starting_state -->
<g id="node2" class="node"><title>starting_state</title>
<ellipse fill="black" stroke="black" cx="79" cy="-404" rx="1.8" ry="1.8"/>
</g>
<!-- starting_state&#45;&gt;free -->
<g id="edge1" class="edge"><title>starting_state&#45;&gt;free</title>
<path fill="none" stroke="black" d="M79,-402.169C79,-399.031 79,-387.414 79,-374.332"/>
<polygon fill="black" stroke="black" points="82.5001,-374.158 79,-364.158 75.5001,-374.158 82.5001,-374.158"/>
</g>
<!-- in_game&#45;&gt;disconnected -->
<g id="edge4" class="edge"><title>in_game&#45;&gt;disconnected</title>
<path fill="none" stroke="black" d="M34.8545,-167.786C35.0239,-156.805 36.0849,-144.757 39,-134 40.5665,-128.219 42.658,-122.397 45.0702,-116.691"/>
<polygon fill="black" stroke="black" points="48.4236,-117.773 49.3964,-107.223 42.0568,-114.864 48.4236,-117.773"/>
<text text-anchor="middle" x="74" y="-138.3" font-family="Arial" font-size="14.00">disconnect</text>
</g>
<!-- disconnected&#45;&gt;disconnected -->
<g id="edge5" class="edge"><title>disconnected&#45;&gt;disconnected</title>
<path fill="none" stroke="black" d="M135.603,-73.1492C146.906,-71.4989 155,-66.4492 155,-58 155,-52.3232 151.346,-48.1809 145.52,-45.5733"/>
<polygon fill="black" stroke="black" points="146.173,-42.123 135.603,-42.8508 144.32,-48.8732 146.173,-42.123"/>
<text text-anchor="middle" x="190" y="-54.3" font-family="Arial" font-size="14.00">disconnect</text>
</g>
</g>
</svg>
